<svg xmlns="http://www.w3.org/2000/svg" viewBox="0 0 24 24"><path d="m8.9492 6.2539c-1.562 0-2.6591 0.44784-3.2891 1.3398-0.63 0.892-0.94727 2.2577-0.94727 4.0977 0 1.833 0.30964 3.1832 0.93164 4.0332 0.622 0.851 1.7257 1.2773 3.3047 1.2773 0.425 0 0.72783-0.034797 0.92383-0.091797l1.3496 2.2188 1.5625-0.72852-1.2676-2.0527c0.589-0.393 1.0066-0.96675 1.2676-1.7188 0.254-0.745 0.38477-1.7263 0.38477-2.9453 0-1.848-0.31141-3.2147-0.94141-4.0977-0.622-0.892-1.7173-1.332-3.2793-1.332zm-0.0078126 1.4785v0.0019531c0.949 0 1.6031 0.30945 1.9551 0.93945 0.351 0.63 0.52344 1.6354 0.52344 3.0254 0 1.383-0.17281 2.3731-0.50781 2.9531-0.343 0.581-0.9977 0.87695-1.9707 0.87695-0.974 0-1.6365-0.30358-1.9805-0.89258-0.343-0.589-0.51562-1.5791-0.51562-2.9531 0-1.382 0.1812-2.3798 0.5332-3.0098 0.359-0.629 1.0129-0.94141 1.9629-0.94141z"/><path d="m17.521 16.813c0.36 0 0.876-0.066 1.546-0.196l-0.073-1.326-1.243 0.05c-0.369 0-0.605-0.099-0.695-0.303-0.09-0.197-0.14-0.605-0.14-1.227v-3.346h2.094v-1.415h-2.094v-2.207h-1.644v2.208h-1.162v1.406h1.162v3.534c0 1.096 0.163 1.84 0.483 2.232 0.319 0.394 0.908 0.59 1.766 0.59z"/></svg>
